<svg id="design" xmlns="http://www.w3.org/2000/svg" xmlns:xlink="http://www.w3.org/1999/xlink" width="143" height="170.406" viewBox="0 0 143 170.406">
  <defs>
    <style>
      .cls-1 {
        font-size: 18px;
        fill: #838f9d;
        font-family: Montserrat;
      }

      .cls-2 {
        font-size: 42px;
        fill: #f4f0e7;
        font-family: Melbourne;
        font-weight: 700;
      }

      .cls-3 {
        fill: #354357;
      }

      .cls-3, .cls-4 {
        fill-rule: evenodd;
      }

      .cls-4 {
        fill: #ffc875;
        filter: url(#filter);
      }
    </style>
    <filter id="filter" x="250" y="436.969" width="143" height="144.031" filterUnits="userSpaceOnUse">
      <feOffset result="offset" dy="5" in="SourceAlpha"/>
      <feGaussianBlur result="blur" stdDeviation="2.236"/>
      <feFlood result="flood" flood-opacity="0.03"/>
      <feComposite result="composite" operator="in" in2="blur"/>
      <feBlend result="blend" in="SourceGraphic"/>
    </filter>
  </defs>
  <path id="back_circle" data-name="back circle" class="cls-3" d="M321.062,436.589a67,67,0,1,1-67,67A67,67,0,0,1,321.062,436.589Zm0,15a52,52,0,1,1-52,52A52,52,0,0,1,321.062,451.591Z" transform="translate(-250 -436.594)"/>
  <path id="front_circle" data-name="front circle" class="cls-4" d="M321,570.963A67.159,67.159,0,0,1,254,504h0c0-.01,0-0.019,0-0.03a7.5,7.5,0,0,1,14.991,0c0,0.011,0,.021,0,0.032H269a52,52,0,1,0,52-52.039h0c-0.011,0-.022,0-0.033,0a7.495,7.495,0,0,1,0-14.99l0.033,0v-0.017A67,67,0,1,1,321,570.963Z" transform="translate(-250 -436.594)"/>
</svg>
