<svg xmlns="http://www.w3.org/2000/svg" width="252.747" height="128.312" viewBox="0 0 252.747 128.312">
  <defs>
    <style>
      .cls-1 {
        fill: #4d8f80;
      }

      .cls-1, .cls-2 {
        fill-rule: evenodd;
      }

      .cls-2 {
        fill: #ffc875;
      }
    </style>
  </defs>
  <path id="full" class="cls-1" d="M1144.82,795.074a126.493,126.493,0,0,1-252.711,0h15.5A111.012,111.012,0,0,0,1129.22,796.7a7.233,7.233,0,0,1-.19-1.621,7.983,7.983,0,0,1,8.02-7.747c4.27,0,7.29,3.465,7.29,7.741h0.48Z" transform="translate(-892.063 -787.344)"/>
  <path id="progress" class="cls-2" d="M1114.33,871.341a0.267,0.267,0,0,1,.07.274,3.043,3.043,0,0,1-.36.423c-0.08.087-.16,0.171-0.23,0.258a7.773,7.773,0,0,1-1.58,1.77,126.491,126.491,0,0,1-220.172-80.061,0.559,0.559,0,0,1,.381-0.393,7.233,7.233,0,0,1,7.172-6.279,8.049,8.049,0,0,1,7.907,6.56,0.316,0.316,0,0,1,.034.05c0,0.079.009,0.156,0.013,0.234a7.284,7.284,0,0,1,.061.9c0,0.037,0,.072-0.006.108a111.01,111.01,0,0,0,192.1,69.623c0.15-.158.29-0.319,0.44-0.47a0.576,0.576,0,0,1,.22-0.076,8.16,8.16,0,0,1,6.94-3.932,7.746,7.746,0,0,1,7.74,7.747A7.583,7.583,0,0,1,1114.33,871.341Z" transform="translate(-892.063 -787.344)"/>
</svg>
